<mxfile host="app.diagrams.net" modified="2023-11-15T00:01:16.079Z" agent="Mozilla/5.0 (Windows NT 10.0; Win64; x64) AppleWebKit/537.36 (KHTML, like Gecko) Chrome/119.0.0.0 Safari/537.36" version="22.1.0" etag="EfL21QC7aZ4TtYZjgwmt" type="github">
  <diagram name="第1頁" id="_VV-INq64PnDA5wk9K74">
    <mxGraphModel>
      <root>
        <mxCell id="0" />
        <mxCell id="1" parent="0" />
      </root>
    </mxGraphModel>
  </diagram>
</mxfile>
